Coordinates
version=1
nRows=8
nColumns=36
inDegrees=yes

Units are S.I. units (second, meters, Newtons, ...)
If the header above contains a line with 'inDegrees', this indicates whether rotational values are in degrees (yes) or radians (no).

endheader
time	pelvis_tilt	pelvis_list	pelvis_rotation	pelvis_tx	pelvis_ty	pelvis_tz	hip_flexion_r	hip_adduction_r	hip_rotation_r	knee_angle_r	knee_angle_r_beta	ankle_angle_r	subtalar_angle_r	mtp_angle_r	hip_flexion_l	hip_adduction_l	hip_rotation_l	knee_angle_l	knee_angle_l_beta	ankle_angle_l	subtalar_angle_l	mtp_angle_l	lumbar_extension	lumbar_bending	lumbar_rotation	arm_flex_r	arm_add_r	arm_rot_r	elbow_flex_r	pro_sup_r	arm_flex_l	arm_add_l	arm_rot_l	elbow_flex_l	pro_sup_l
      0.00000000	     28.59224774	     -0.69792449	     -0.42884139	     -0.16378116	      0.65585971	     -0.02432788	     53.27311836	     -9.95892291	     -3.66906176	     86.52055499	      1.51006856	     -4.54037468	    -20.12219422	     -7.80050455	     50.98368328	    -15.72583763	      1.29542691	     87.54621132	      1.52796964	      3.70153417	     -3.38673384	     -7.80050455	    -42.71631394	      1.94606367	      2.95031201	     19.73947660	     -3.55010063	     32.83332680	     55.87256688	     79.97504115	     19.64453380	     -0.44863375	     33.30118271	     54.38914856	     75.73793752
      0.01666670	     28.15859435	     -0.24576412	      0.31615527	     -0.16714015	      0.65496579	     -0.02389562	     53.01276498	     -7.99038463	     -1.89747932	     87.85949150	      1.53343741	     -0.74486117	    -19.14702061	     -7.79126885	     53.07040574	    -11.75623074	      2.62347009	     92.18328682	      1.60890187	     11.26167964	     -4.37190952	     -7.79126885	    -43.55786534	      1.36687751	      1.63949065	     20.18500090	     -2.80587786	     32.16244473	     57.06917266	     79.69399495	     20.95077005	     -1.37571647	     32.91650273	     55.43530856	     75.51216799
      0.03333330	     28.65449933	      0.44791656	     -0.13366647	     -0.17054314	      0.65425515	     -0.02336562	     52.18772545	     -8.28709931	     -1.26398788	     88.25389492	      1.54032104	      2.39693153	    -17.57902635	     -7.78489258	     52.57547247	    -10.96571096	      2.39183284	     92.49216772	      1.61429286	     11.36974891	     -5.10359755	     -7.78489258	    -44.74358219	      0.75907109	      1.57802488	     20.50900263	     -3.04894876	     32.63644562	     57.87285960	     80.14094338	     21.81665662	     -1.66795205	     32.93636203	     55.84329985	     75.39470742
      0.05000000	     29.89946745	      0.59088188	     -0.38951841	     -0.17877446	      0.65514340	     -0.01939373	     50.89276831	     -7.80379293	     -1.42680287	     87.40024524	      1.52542205	      3.80869148	    -16.57536686	     -7.74018366	     51.20352674	    -10.96313754	      2.65111839	     92.21057692	      1.60937817	     10.32692789	     -5.28745035	     -7.74018366	    -46.49988907	      0.70699656	      1.01429517	     21.78520443	     -2.76014186	     34.05485676	     58.15302632	     83.93189540	     22.37881252	     -2.58692090	     32.54168663	     57.56203393	     75.58686871
      0.06666670	     30.58389746	      0.63414102	     -0.37407657	     -0.18017852	      0.65543887	     -0.01942191	     50.22422447	     -7.52360005	     -1.54723082	     87.42026055	      1.52577138	      4.71114409	    -16.12597234	     -7.72292601	     50.74310042	    -10.79311618	      2.84976099	     91.99896866	      1.60568491	      8.60123065	     -6.84338938	     -7.72292601	    -47.41710919	      0.88777896	      0.92272803	     22.25353410	     -2.59936218	     34.45352389	     58.75646994	     83.53402422	     22.79264002	     -2.94046686	     33.03602951	     58.20040752	     75.39945523
      0.08333330	     31.25100799	      0.68420188	     -0.47114073	     -0.18061220	      0.65865887	     -0.01902007	     49.19817884	     -7.34888614	     -1.30312273	     87.02056711	      1.51879541	      4.83261010	    -15.88119270	     -7.71244151	     49.54556333	    -10.85954758	      2.65749008	     91.33730181	      1.59413665	      8.06773503	     -6.69215792	     -7.71244151	    -48.11990276	      0.85449562	      0.65412650	     22.71495152	     -2.34253231	     35.00830769	     58.87500201	     83.25090508	     23.01961109	     -3.23568984	     33.46531280	     58.59816537	     75.32682195
      0.10000000	     31.79495684	      0.76396687	     -0.38486394	     -0.18758052	      0.65891792	     -0.01622935	     48.63104989	     -7.34129669	     -1.24010284	     86.60963305	      1.51162326	      4.44879507	    -15.85152781	     -7.70778287	     48.97077425	    -10.80865155	      2.68572407	     90.56789371	      1.58070794	      7.17607254	     -7.06201024	     -7.70778287	    -48.94702425	      0.78955820	      0.47153045	     23.20436751	     -2.15733223	     35.49911413	     59.03933867	     83.50505762	     23.23293572	     -3.63177109	     33.64247402	     59.61703800	     75.80844561
      0.11666670	     31.98699756	      0.64248377	     -0.34376186	     -0.18667965	      0.65648130	     -0.01650960	     48.66210864	     -7.26879228	     -1.20362254	     86.69282225	      1.51307519	      4.18215917	    -16.00900009	     -7.70353623	     49.09903372	    -10.79083655	      3.01661603	     90.72364647	      1.58342634	      6.68573914	     -7.20720344	     -7.70353623	    -49.07397437	      0.81916060	      0.43404191	     23.35434897	     -2.10700517	     35.67467483	     59.35269766	     83.18814246	     23.16838504	     -3.71851924	     33.53645831	     60.18782388	     75.76020792
